<svg width="280" height="274" viewBox="0 0 280 274" fill="none" xmlns="http://www.w3.org/2000/svg">
<g opacity="0.1">
<path d="M25.3115 274C28.4334 267.939 0.478592 219.643 0.0302833 207.444C-1.3172 170.831 42.7323 170.539 46.5827 140.638C50.0334 113.841 5.18028 81.4936 32.9208 56.1485C56.67 34.4489 83.1185 43.4849 110.845 36.0081C127.381 31.5496 128.648 16.2365 141.712 7.51716C170.025 -11.3789 231.832 8.09394 247.974 35.5169C263.457 61.8196 229.709 84.9877 238.36 110.182C245.316 130.442 267.457 140.43 268.72 163.725C269.725 182.265 251.007 194.899 253.54 213.339C256.968 238.301 301.693 244.638 266.696 273.758" fill="url(#paint0_linear_3786_18849)"/>
<path d="M25.3115 274C28.4334 267.939 0.478592 219.643 0.0302833 207.444C-1.3172 170.831 42.7323 170.539 46.5827 140.638C50.0334 113.841 5.18028 81.4936 32.9208 56.1485C56.67 34.4489 83.1185 43.4849 110.845 36.0081C127.381 31.5496 128.648 16.2365 141.712 7.51716C170.025 -11.3789 231.832 8.09394 247.974 35.5169C263.457 61.8196 229.709 84.9877 238.36 110.182C245.316 130.442 267.457 140.43 268.72 163.725C269.725 182.265 251.007 194.899 253.54 213.339C256.968 238.301 301.693 244.638 266.696 273.758" fill="url(#paint1_linear_3786_18849)" fill-opacity="0.28"/>
</g>
<defs>
<linearGradient id="paint0_linear_3786_18849" x1="140" y1="0" x2="140" y2="274" gradientUnits="userSpaceOnUse">
<stop stop-color="white"/>
<stop offset="0.5" stop-color="#5A5BB5"/>
<stop offset="1" stop-color="#5A5BB5"/>
</linearGradient>
<linearGradient id="paint1_linear_3786_18849" x1="140" y1="0" x2="140" y2="274" gradientUnits="userSpaceOnUse">
<stop stop-color="white" stop-opacity="0"/>
<stop offset="1" stop-color="white"/>
</linearGradient>
</defs>
</svg>
