<svg width="27" height="27" viewBox="0 0 27 27" fill="none" xmlns="http://www.w3.org/2000/svg">
<path d="M13.5001 0C6.06154 0 0 6.06154 0 13.5001C0 20.9386 6.06154 27.0002 13.5001 27.0002C20.9386 27.0002 27.0002 20.9386 27.0002 13.5001C27.0002 6.06154 20.9386 0 13.5001 0ZM19.3726 18.3196C19.1836 18.6436 18.8461 18.8191 18.4951 18.8191C18.3196 18.8191 18.1441 18.7786 17.9821 18.6706L13.7971 16.1731C12.7576 15.5521 11.9881 14.1886 11.9881 12.9871V7.45205C11.9881 6.89854 12.4471 6.43954 13.0006 6.43954C13.5541 6.43954 14.0131 6.89854 14.0131 7.45205V12.9871C14.0131 13.4731 14.4181 14.1886 14.8366 14.4316L19.0216 16.9291C19.5076 17.2126 19.6696 17.8336 19.3726 18.3196Z" fill="#010211"/>
</svg>
