<svg width="27" height="27" viewBox="0 0 27 27" fill="none" xmlns="http://www.w3.org/2000/svg">
<path d="M13.5001 0C6.04804 0 0 6.04804 0 13.5001C0 20.9521 6.04804 27.0002 13.5001 27.0002C20.9521 27.0002 27.0002 20.9521 27.0002 13.5001C27.0002 6.04804 20.9521 0 13.5001 0ZM20.2501 20.8846C17.9416 20.8846 15.7816 19.8856 14.0536 18.0361C12.0961 19.8046 9.54456 20.8846 6.75004 20.8846C6.19654 20.8846 5.73754 20.4256 5.73754 19.8721C5.73754 19.3186 6.19654 18.8596 6.75004 18.8596C11.4346 18.8596 15.3091 15.1471 15.8086 10.3951H13.5001H6.76354C6.21004 10.3951 5.75104 9.93606 5.75104 9.38256C5.75104 8.82905 6.21004 8.38355 6.76354 8.38355H12.4876V7.12804C12.4876 6.57454 12.9466 6.11554 13.5001 6.11554C14.0536 6.11554 14.5126 6.57454 14.5126 7.12804V8.38355H16.7941C16.8211 8.38355 16.8481 8.37005 16.8751 8.37005C16.9021 8.37005 16.9291 8.38355 16.9561 8.38355H20.2366C20.7901 8.38355 21.2491 8.84255 21.2491 9.39606C21.2491 9.94956 20.7901 10.4086 20.2366 10.4086H17.8336C17.6311 12.7171 16.7671 14.8366 15.4441 16.5646C16.7941 18.0631 18.4816 18.8731 20.2501 18.8731C20.8036 18.8731 21.2626 19.3321 21.2626 19.8856C21.2626 20.4391 20.8036 20.8846 20.2501 20.8846Z" fill="#010211"/>
</svg>
