<svg width="12" height="12" viewBox="0 0 12 12" fill="none" xmlns="http://www.w3.org/2000/svg">
<path d="M4.04648 3.78987L4.2499 3.76023L4.34084 3.57586L5.73686 0.745326C5.73693 0.745181 5.73701 0.745036 5.73708 0.744891C5.76145 0.696027 5.79894 0.654908 5.84535 0.626137L5.63932 0.293741L5.84536 0.626137C5.89191 0.597281 5.94559 0.581992 6.00036 0.581992C6.05513 0.581992 6.10882 0.597281 6.15537 0.626137L6.36141 0.293741L6.15537 0.626137C6.20178 0.654904 6.23926 0.696016 6.26364 0.74487C6.26371 0.745022 6.26379 0.745173 6.26386 0.745325L7.65989 3.57586L7.75093 3.76045L7.95464 3.78992L11.0782 4.24176L11.0794 4.24194C11.1339 4.24964 11.1851 4.27251 11.2272 4.30794C11.2693 4.34337 11.3006 4.38992 11.3175 4.44229L11.6897 4.32213L11.3175 4.44229C11.3344 4.49465 11.3363 4.55072 11.3228 4.60408C11.3094 4.65744 11.2812 4.70594 11.2415 4.74405L11.2415 4.74404L11.2394 4.74611L8.9802 6.94841L8.83305 7.09186L8.86771 7.29441L9.40058 10.408C9.40061 10.4081 9.40063 10.4083 9.40066 10.4084C9.40965 10.4621 9.40351 10.5173 9.38291 10.5678L9.74496 10.7156L9.38291 10.5678C9.36225 10.6184 9.32788 10.6622 9.28366 10.6943C9.23944 10.7264 9.18714 10.7455 9.13264 10.7495C9.07829 10.7534 9.02391 10.7422 8.9756 10.717C8.97547 10.7169 8.97535 10.7168 8.97522 10.7168L6.1811 9.24775L5.99911 9.15207L5.81712 9.24775L3.02242 10.7171L3.02214 10.7172C2.97383 10.7427 2.91935 10.7541 2.86489 10.7502C2.81042 10.7463 2.75813 10.7272 2.71394 10.6951C2.66975 10.663 2.63542 10.6192 2.61484 10.5686C2.59425 10.5181 2.58824 10.4627 2.59747 10.4089L3.13213 7.29803L3.16697 7.09532L3.01969 6.95176L0.760496 4.74946L0.760504 4.74945L0.758364 4.7474C0.718671 4.70929 0.690496 4.66078 0.677058 4.60742C0.663619 4.55406 0.665457 4.498 0.682364 4.44563C0.69927 4.39327 0.730563 4.34671 0.772667 4.31129L0.520883 4.01205L0.772667 4.31129C0.814772 4.27586 0.865991 4.25299 0.920475 4.24528L0.920476 4.24529L0.922099 4.24505L4.04648 3.78987Z" stroke="#E29512" stroke-width="0.782148"/>
</svg>
